<svg width="290" height="140" viewBox="0 0 290 140" fill="none" xmlns="http://www.w3.org/2000/svg">
<path d="M238.76 88.08C227.96 88.08 218.76 86.2 211.16 82.44C203.64 78.6 197.88 73.36 193.88 66.72C189.88 60.08 187.88 52.56 187.88 44.16C187.88 35.68 189.84 28.12 193.76 21.48C197.76 14.84 203.56 9.6 211.16 5.76C218.76 1.92 227.96 0 238.76 0C249.64 0 258.84 1.92 266.36 5.76C273.96 9.52 279.72 14.72 283.64 21.36C287.64 28 289.64 35.6 289.64 44.16C289.64 52.56 287.64 60.08 283.64 66.72C279.72 73.36 273.96 78.6 266.36 82.44C258.84 86.2 249.64 88.08 238.76 88.08ZM238.76 69.84C246.92 69.84 253.4 67.72 258.2 63.48C263 59.16 265.4 53.2 265.4 45.6V42.48C265.4 34.88 263 28.96 258.2 24.72C253.4 20.4 246.92 18.24 238.76 18.24C230.6 18.24 224.12 20.4 219.32 24.72C214.52 28.96 212.12 34.88 212.12 42.48V45.6C212.12 53.2 214.52 59.16 219.32 63.48C224.12 67.72 230.6 69.84 238.76 69.84Z" fill="#383B40"/>
<path d="M0 86.64V1.44H24.6L65.4 49.2H65.52V1.44H87.84V86.64H69.48L22.44 31.68H22.32V86.64H0Z" fill="#383B40"/>
<path d="M102.04 2.64001H181.04V20.64H102.04V2.64001Z" fill="#383B40"/>
<path d="M102.04 34.64H181.04V52.64H102.04V34.64Z" fill="#383B40"/>
<path d="M102.04 67.64H181.04V85.64H102.04V67.64Z" fill="#383B40"/>
<path d="M0.254387 139V102.79H32.3844V110.338H10.4544V118.192H31.2624V125.434H10.4544V139H0.254387Z" fill="#383B40"/>
<path d="M29.8165 139L47.4625 102.79H58.2745L75.9205 139H65.0575L61.0795 130.432H43.9945L40.0675 139H29.8165ZM47.2585 123.496H57.9175L52.6135 112.072L47.2585 123.496Z" fill="#383B40"/>
<path d="M96.9707 139.663C92.6187 139.663 88.7427 138.898 85.3427 137.368C81.9767 135.804 79.3247 133.628 77.3867 130.84C75.4827 128.018 74.5307 124.703 74.5307 120.895C74.5307 117.087 75.4827 113.789 77.3867 111.001C79.3247 108.213 81.9767 106.054 85.3427 104.524C88.7427 102.994 92.6187 102.229 96.9707 102.229C100.779 102.229 104.128 102.773 107.018 103.861C109.908 104.949 112.288 106.445 114.158 108.349C116.028 110.219 117.286 112.327 117.932 114.673L108.803 116.866C108.089 115.098 107.137 113.721 105.947 112.735C104.757 111.715 103.397 111.001 101.867 110.593C100.371 110.185 98.7897 109.981 97.1237 109.981C94.8797 109.981 92.8227 110.372 90.9527 111.154C89.0827 111.902 87.5867 113.041 86.4647 114.571C85.3767 116.101 84.8327 118.039 84.8327 120.385V121.405C84.8327 123.717 85.3767 125.655 86.4647 127.219C87.5867 128.749 89.0827 129.905 90.9527 130.687C92.8227 131.435 94.8797 131.809 97.1237 131.809C98.7897 131.809 100.371 131.605 101.867 131.197C103.397 130.789 104.757 130.092 105.947 129.106C107.137 128.086 108.089 126.692 108.803 124.924L117.932 127.117C117.286 129.463 116.028 131.588 114.158 133.492C112.288 135.362 109.908 136.858 107.018 137.98C104.128 139.102 100.779 139.663 96.9707 139.663Z" fill="#383B40"/>
<path d="M132.324 139V110.338H117.942V102.79H156.906V110.338H142.524V139H132.324Z" fill="#383B40"/>
<path d="M178.583 139.612C173.993 139.612 170.083 138.813 166.853 137.215C163.657 135.583 161.209 133.356 159.509 130.534C157.809 127.712 156.959 124.516 156.959 120.946C156.959 117.342 157.792 114.129 159.458 111.307C161.158 108.485 163.623 106.258 166.853 104.626C170.083 102.994 173.993 102.178 178.583 102.178C183.207 102.178 187.117 102.994 190.313 104.626C193.543 106.224 195.991 108.434 197.657 111.256C199.357 114.078 200.207 117.308 200.207 120.946C200.207 124.516 199.357 127.712 197.657 130.534C195.991 133.356 193.543 135.583 190.313 137.215C187.117 138.813 183.207 139.612 178.583 139.612ZM178.583 131.86C182.051 131.86 184.805 130.959 186.845 129.157C188.885 127.321 189.905 124.788 189.905 121.558V120.232C189.905 117.002 188.885 114.486 186.845 112.684C184.805 110.848 182.051 109.93 178.583 109.93C175.115 109.93 172.361 110.848 170.321 112.684C168.281 114.486 167.261 117.002 167.261 120.232V121.558C167.261 124.788 168.281 127.321 170.321 129.157C172.361 130.959 175.115 131.86 178.583 131.86Z" fill="#383B40"/>
<path d="M204.802 139V102.79H227.14C231.968 102.79 235.589 103.827 238.003 105.901C240.451 107.941 241.675 110.916 241.675 114.826C241.675 117.648 240.995 119.994 239.635 121.864C238.309 123.734 236.371 125.128 233.821 126.046L242.032 139H230.404L223.366 127.372H215.002V139H204.802ZM226.222 110.338H215.002V120.079H226.222C229.724 120.079 231.475 118.532 231.475 115.438V114.928C231.475 111.868 229.724 110.338 226.222 110.338Z" fill="#383B40"/>
<path d="M259.271 139V123.7L240.095 102.79H252.386L264.473 116.152L276.56 102.79H288.647L269.471 123.7V139H259.271Z" fill="#383B40"/>
</svg>
