<svg width="290" height="89" viewBox="0 0 290 89" fill="none" xmlns="http://www.w3.org/2000/svg">
<path d="M238.76 88.08C227.96 88.08 218.76 86.2 211.16 82.44C203.64 78.6 197.88 73.36 193.88 66.72C189.88 60.08 187.88 52.56 187.88 44.16C187.88 35.68 189.84 28.12 193.76 21.48C197.76 14.84 203.56 9.6 211.16 5.76C218.76 1.92 227.96 0 238.76 0C249.64 0 258.84 1.92 266.36 5.76C273.96 9.52 279.72 14.72 283.64 21.36C287.64 28 289.64 35.6 289.64 44.16C289.64 52.56 287.64 60.08 283.64 66.72C279.72 73.36 273.96 78.6 266.36 82.44C258.84 86.2 249.64 88.08 238.76 88.08ZM238.76 69.84C246.92 69.84 253.4 67.72 258.2 63.48C263 59.16 265.4 53.2 265.4 45.6V42.48C265.4 34.88 263 28.96 258.2 24.72C253.4 20.4 246.92 18.24 238.76 18.24C230.6 18.24 224.12 20.4 219.32 24.72C214.52 28.96 212.12 34.88 212.12 42.48V45.6C212.12 53.2 214.52 59.16 219.32 63.48C224.12 67.72 230.6 69.84 238.76 69.84Z" fill="white"/>
<path d="M7.62939e-06 86.64V1.44H24.6L65.4 49.2H65.52V1.44H87.84V86.64H69.48L22.44 31.68H22.32V86.64H7.62939e-06Z" fill="white"/>
<path d="M102.04 2.64001H181.04V20.64H102.04V2.64001Z" fill="white"/>
<path d="M102.04 34.64H181.04V52.64H102.04V34.64Z" fill="white"/>
<path d="M102.04 67.64H181.04V85.64H102.04V67.64Z" fill="white"/>
</svg>
