<svg width="980" height="89" viewBox="0 0 980 89" fill="none" xmlns="http://www.w3.org/2000/svg">
<path d="M238.76 88.08C227.96 88.08 218.76 86.2 211.16 82.44C203.64 78.6 197.88 73.36 193.88 66.72C189.88 60.08 187.88 52.56 187.88 44.16C187.88 35.68 189.84 28.12 193.76 21.48C197.76 14.84 203.56 9.6 211.16 5.76C218.76 1.92 227.96 0 238.76 0C249.64 0 258.84 1.92 266.36 5.76C273.96 9.52 279.72 14.72 283.64 21.36C287.64 28 289.64 35.6 289.64 44.16C289.64 52.56 287.64 60.08 283.64 66.72C279.72 73.36 273.96 78.6 266.36 82.44C258.84 86.2 249.64 88.08 238.76 88.08ZM238.76 69.84C246.92 69.84 253.4 67.72 258.2 63.48C263 59.16 265.4 53.2 265.4 45.6V42.48C265.4 34.88 263 28.96 258.2 24.72C253.4 20.4 246.92 18.24 238.76 18.24C230.6 18.24 224.12 20.4 219.32 24.72C214.52 28.96 212.12 34.88 212.12 42.48V45.6C212.12 53.2 214.52 59.16 219.32 63.48C224.12 67.72 230.6 69.84 238.76 69.84Z" fill="#383B40"/>
<path d="M300.453 86.64V1.44H376.053V19.2H324.453V37.68H373.413V54.72H324.453V86.64H300.453Z" fill="#383B40"/>
<path d="M370.011 86.64L411.531 1.44H436.971L478.491 86.64H452.931L443.571 66.48H403.371L394.131 86.64H370.011ZM411.051 50.16H436.131L423.651 23.28L411.051 50.16Z" fill="#383B40"/>
<path d="M528.021 88.2C517.781 88.2 508.661 86.4 500.661 82.8C492.741 79.12 486.501 74 481.941 67.44C477.461 60.8 475.221 53 475.221 44.04C475.221 35.08 477.461 27.32 481.941 20.76C486.501 14.2 492.741 9.12 500.661 5.52C508.661 1.92 517.781 0.120006 528.021 0.120006C536.981 0.120006 544.861 1.40001 551.661 3.96001C558.461 6.52001 564.061 10.04 568.461 14.52C572.861 18.92 575.821 23.88 577.341 29.4L555.861 34.56C554.181 30.4 551.941 27.16 549.141 24.84C546.341 22.44 543.141 20.76 539.541 19.8C536.021 18.84 532.301 18.36 528.381 18.36C523.101 18.36 518.261 19.28 513.861 21.12C509.461 22.88 505.941 25.56 503.301 29.16C500.741 32.76 499.461 37.32 499.461 42.84V45.24C499.461 50.68 500.741 55.24 503.301 58.92C505.941 62.52 509.461 65.24 513.861 67.08C518.261 68.84 523.101 69.72 528.381 69.72C532.301 69.72 536.021 69.24 539.541 68.28C543.141 67.32 546.341 65.68 549.141 63.36C551.941 60.96 554.181 57.68 555.861 53.52L577.341 58.68C575.821 64.2 572.861 69.2 568.461 73.68C564.061 78.08 558.461 81.6 551.661 84.24C544.861 86.88 536.981 88.2 528.021 88.2Z" fill="#383B40"/>
<path d="M611.206 86.64V19.2H577.366V1.44H669.046V19.2H635.206V86.64H611.206Z" fill="#383B40"/>
<path d="M720.049 88.08C709.249 88.08 700.049 86.2 692.449 82.44C684.929 78.6 679.169 73.36 675.169 66.72C671.169 60.08 669.169 52.56 669.169 44.16C669.169 35.68 671.129 28.12 675.049 21.48C679.049 14.84 684.849 9.6 692.449 5.76C700.049 1.92 709.249 0 720.049 0C730.929 0 740.129 1.92 747.649 5.76C755.249 9.52 761.009 14.72 764.929 21.36C768.929 28 770.929 35.6 770.929 44.16C770.929 52.56 768.929 60.08 764.929 66.72C761.009 73.36 755.249 78.6 747.649 82.44C740.129 86.2 730.929 88.08 720.049 88.08ZM720.049 69.84C728.209 69.84 734.689 67.72 739.489 63.48C744.289 59.16 746.689 53.2 746.689 45.6V42.48C746.689 34.88 744.289 28.96 739.489 24.72C734.689 20.4 728.209 18.24 720.049 18.24C711.889 18.24 705.409 20.4 700.609 24.72C695.809 28.96 693.409 34.88 693.409 42.48V45.6C693.409 53.2 695.809 59.16 700.609 63.48C705.409 67.72 711.889 69.84 720.049 69.84Z" fill="#383B40"/>
<path d="M781.742 86.64V1.44H834.302C845.662 1.44 854.182 3.88 859.862 8.76C865.622 13.56 868.502 20.56 868.502 29.76C868.502 36.4 866.902 41.92 863.702 46.32C860.582 50.72 856.022 54 850.022 56.16L869.342 86.64H841.982L825.422 59.28H805.742V86.64H781.742ZM832.142 19.2H805.742V42.12H832.142C840.382 42.12 844.502 38.48 844.502 31.2V30C844.502 22.8 840.382 19.2 832.142 19.2Z" fill="#383B40"/>
<path d="M909.905 86.64V50.64L864.785 1.44H893.705L922.145 32.88L950.585 1.44H979.025L933.905 50.64V86.64H909.905Z" fill="#383B40"/>
<path d="M0 86.64V1.44H24.6L65.4 49.2H65.52V1.44H87.84V86.64H69.48L22.44 31.68H22.32V86.64H0Z" fill="#383B40"/>
<path d="M102.04 2.64001H181.04V20.64H102.04V2.64001Z" fill="#383B40"/>
<path d="M102.04 34.64H181.04V52.64H102.04V34.64Z" fill="#383B40"/>
<path d="M102.04 67.64H181.04V85.64H102.04V67.64Z" fill="#383B40"/>
</svg>
