<?xml version="1.0" encoding="UTF-8"?>
<svg id="Layer_2" data-name="Layer 2" xmlns="http://www.w3.org/2000/svg" viewBox="0 0 1601.64 217.83">
  <path d="M425.36,25.68c-23.73,0-45.44,8.37-61.13,23.55-15.69,15.19-24.33,36.18-24.33,59.1s8.64,43.91,24.33,59.1c15.69,15.19,37.4,23.55,61.13,23.55s45.18-8.33,60.84-23.47c15.73-15.19,24.39-36.21,24.39-59.18s-8.66-43.99-24.39-59.18c-15.66-15.13-37.27-23.47-60.84-23.47ZM470.19,152.65c-11.48,11.33-27.4,17.57-44.83,17.57s-33.58-6.24-45.15-17.57c-11.57-11.34-17.95-27.07-17.95-44.31s6.37-32.97,17.95-44.31c11.57-11.33,27.6-17.57,45.15-17.57s33.35,6.24,44.83,17.57c11.49,11.34,17.82,27.07,17.82,44.32s-6.33,32.98-17.82,44.32Z"/>
  <path d="M637.99,102.87h-78.11v-55.52h87.97c1.66,0,3-1.34,3-3v-14.32c0-1.66-1.34-3-3-3h-107.55c-1.66,0-3,1.34-3,3v156.62c0,1.66,1.34,3,3,3h16.58c1.66,0,3-1.34,3-3v-63.45h78.11c1.66,0,3-1.34,3-3v-14.32c0-1.66-1.34-3-3-3Z"/>
  <path d="M735.94,28.78c-.49-1.07-1.56-1.75-2.73-1.75h-16.36c-1.17,0-2.24.68-2.73,1.75l-71.7,156.62c-.43.93-.35,2.01.2,2.87.55.86,1.5,1.38,2.53,1.38h17.25c1.18,0,2.25-.69,2.74-1.77l18.02-40.07h83.5l18.02,40.07c.48,1.08,1.56,1.77,2.74,1.77h17.48c1.02,0,1.97-.52,2.53-1.38.55-.86.63-1.94.2-2.87l-71.7-156.62ZM691.91,128.38l33.01-73.77,33.01,73.77h-66.02Z"/>
  <path d="M1186.92,25.68c-23.73,0-45.44,8.37-61.13,23.55-15.69,15.19-24.33,36.18-24.33,59.1s8.64,43.91,24.33,59.1c15.69,15.19,37.4,23.55,61.13,23.55s45.18-8.33,60.84-23.47c15.73-15.19,24.39-36.21,24.39-59.18s-8.66-43.99-24.39-59.18c-15.66-15.13-37.27-23.47-60.84-23.47ZM1231.75,152.65c-11.48,11.33-27.4,17.57-44.83,17.57s-33.58-6.24-45.15-17.57c-11.57-11.34-17.95-27.07-17.95-44.31s6.37-32.97,17.95-44.31c11.57-11.33,27.6-17.57,45.15-17.57s33.35,6.24,44.83,17.57c11.49,11.34,17.82,27.07,17.82,44.32s-6.33,32.98-17.82,44.32Z"/>
  <path d="M1393.55,134.44c22.03-8.54,34.09-26.41,34.09-50.72,0-17.37-6.28-31.8-18.16-41.74-11.7-9.79-28.62-14.96-48.92-14.96h-58.7c-1.66,0-3,1.34-3,3v156.62c0,1.66,1.34,3,3,3h16.58c1.66,0,3-1.34,3-3v-46.67h39.12c3.91,0,7.49-.16,11.12-.51l34.84,48.92c.56.79,1.47,1.26,2.44,1.26h18.15c1.12,0,2.15-.63,2.67-1.63.52-1,.43-2.2-.22-3.12l-36-50.46ZM1360.11,119.87h-38.67V47.35h38.67c37.15,0,44.95,19.78,44.95,36.38,0,23.31-15.96,36.15-44.95,36.15Z"/>
  <path d="M1576.25,28.56c-.53-.95-1.53-1.53-2.62-1.53h-16.58c-1.05,0-2.02.54-2.56,1.44l-51.21,83.74-51.21-83.74c-.55-.89-1.52-1.44-2.56-1.44h-17.7c-1.09,0-2.09.59-2.62,1.53-.53.95-.51,2.11.06,3.03l62.29,101.75v53.3c0,1.66,1.34,3,3,3h16.36c1.66,0,3-1.34,3-3v-53.3l62.29-101.75c.57-.93.59-2.09.06-3.03Z"/>
  <path d="M1101.64,30.02c0-1.66-1.34-3-3-3h-126.82c-1.66,0-3,1.34-3,3v14.32c0,1.66,1.34,3,3,3h52.12v139.3c0,1.66,1.34,3,3,3h16.58c1.66,0,3-1.34,3-3V47.35h52.12c1.66,0,3-1.34,3-3v-14.32Z"/>
  <path d="M895.2,46.45c18.06,0,32.54,5.78,44.24,17.67.56.57,1.33.89,2.13.9.75.02,1.57-.31,2.14-.88l10.53-10.52c1.14-1.13,1.18-2.96.1-4.15-14.01-15.35-35.17-23.8-59.58-23.8s-45.3,8.34-60.93,23.47c-15.67,15.17-24.3,36.19-24.3,59.18s8.62,44,24.27,59.18c15.61,15.14,37.18,23.47,60.74,23.47s45.65-8.53,59.8-24.02c1.08-1.19,1.04-3.01-.1-4.15l-10.53-10.52c-.57-.57-1.37-.89-2.15-.88-.8,0-1.57.34-2.13.91-11.64,12.03-26.1,17.88-44.22,17.88-36.1,0-63.32-26.6-63.32-61.88s27.22-61.88,63.32-61.88Z"/>
  <path d="M162.46,25h-16.78c-1.66,0-3,1.34-3,3v121.77L44.37,26.13c-.57-.72-1.43-1.13-2.35-1.13h-14.02c-1.66,0-3,1.34-3,3v160.66c0,1.66,1.34,3,3,3h17.01c1.66,0,3-1.34,3-3v-121.75l98.08,123.62c.57.72,1.44,1.14,2.35,1.14h14.02c1.66,0,3-1.34,3-3V28c0-1.66-1.34-3-3-3Z"/>
  <rect x="193.63" y="26.9" width="133.93" height="22.63" rx="2.89" ry="2.89"/>
  <rect x="193.63" y="169.94" width="133.93" height="22.9" rx="2.89" ry="2.89"/>
  <rect x="193.63" y="98.89" width="107.87" height="22.63" rx="2.89" ry="2.89"/>
</svg>