<svg width="512" height="512" viewBox="0 0 512 512" fill="none" xmlns="http://www.w3.org/2000/svg">
<path d="M380.234 195.517C362.201 195.517 345.704 201.881 333.781 213.424C321.858 224.974 315.293 240.934 315.293 258.362C315.293 275.79 321.858 291.75 333.781 303.3C345.704 314.85 362.201 321.207 380.234 321.207C398.266 321.207 414.566 314.873 426.466 303.361C438.419 291.811 445 275.828 445 258.362C445 240.896 438.419 224.913 426.466 213.363C414.566 201.859 398.145 195.517 380.234 195.517ZM414.3 292.062C405.576 300.677 393.479 305.422 380.234 305.422C366.989 305.422 354.716 300.677 345.924 292.062C337.132 283.439 332.284 271.478 332.284 258.37C332.284 245.261 337.125 233.3 345.924 224.677C354.716 216.062 366.897 211.318 380.234 211.318C393.57 211.318 405.576 216.062 414.3 224.677C423.031 233.3 427.841 245.261 427.841 258.377C427.841 271.494 423.031 283.454 414.3 292.077V292.062Z" fill="white"/>
<path d="M303.719 196.445H206.338C205.125 196.445 204.142 197.429 204.142 198.642V211.455C204.142 212.668 205.125 213.652 206.338 213.652H303.719C304.932 213.652 305.915 212.668 305.915 211.455V198.642C305.915 197.429 304.932 196.445 303.719 196.445Z" fill="white"/>
<path d="M303.719 305.209H206.338C205.125 305.209 204.142 306.193 204.142 307.406V320.424C204.142 321.637 205.125 322.621 206.338 322.621H303.719C304.932 322.621 305.915 321.637 305.915 320.424V307.406C305.915 306.193 304.932 305.209 303.719 305.209Z" fill="white"/>
<path d="M283.916 251.184H206.338C205.125 251.184 204.142 252.168 204.142 253.382V266.194C204.142 267.408 205.125 268.391 206.338 268.391H283.916C285.129 268.391 286.112 267.408 286.112 266.194V253.382C286.112 252.168 285.129 251.184 283.916 251.184Z" fill="white"/>
<path d="M180.456 195H167.705C166.443 195 165.425 196.019 165.425 197.281V289.872L90.7193 195.859C90.2861 195.312 89.6326 195 88.9335 195H78.2797C77.0183 195 76 196.019 76 197.281V319.443C76 320.705 77.0183 321.724 78.2797 321.724H91.2056C92.467 321.724 93.4853 320.705 93.4853 319.443V226.867L168.016 320.865C168.449 321.412 169.111 321.732 169.802 321.732H180.456C181.717 321.732 182.736 320.713 182.736 319.451V197.281C182.736 196.019 181.717 195 180.456 195Z" fill="white"/>
</svg>
