<svg xmlns="http://www.w3.org/2000/svg" version="1.1" xmlns:xlink="http://www.w3.org/1999/xlink" xmlns:svgjs="http://svgjs.dev/svgjs" width="1000" height="1000"><style>
    #light-icon {
      display: inline;
    }
    #dark-icon {
      display: none;
    }

    @media (prefers-color-scheme: dark) {
      #light-icon {
        display: none;
      }
      #dark-icon {
        display: inline;
      }
    }
  </style><g id="light-icon"><svg xmlns="http://www.w3.org/2000/svg" version="1.1" xmlns:xlink="http://www.w3.org/1999/xlink" xmlns:svgjs="http://svgjs.dev/svgjs" width="1000" height="1000"><g><g transform="matrix(1.0245901639344261,0,0,1.0245901639344261,5.684341886080802e-14,5.684341886080802e-14)"><svg xmlns="http://www.w3.org/2000/svg" version="1.1" xmlns:xlink="http://www.w3.org/1999/xlink" xmlns:svgjs="http://svgjs.dev/svgjs" width="976" height="976"><svg width="976" height="976" viewBox="0 0 976 976" fill="none" xmlns="http://www.w3.org/2000/svg">
<path d="M724.764 599C697.544 599 674.356 594.262 655.201 584.785C636.248 575.106 621.731 561.899 611.649 545.164C601.568 528.428 596.527 509.474 596.527 488.302C596.527 466.929 601.467 447.875 611.347 431.139C621.428 414.403 636.047 401.196 655.201 391.518C674.356 381.839 697.544 377 724.764 377C752.185 377 775.373 381.839 794.326 391.518C813.481 400.995 827.998 414.101 837.878 430.837C847.959 447.572 853 466.728 853 488.302C853 509.474 847.959 528.428 837.878 545.164C827.998 561.899 813.481 575.106 794.326 584.785C775.373 594.262 752.185 599 724.764 599ZM724.764 553.027C745.33 553.027 761.662 547.684 773.76 536.997C785.857 526.109 791.906 511.087 791.906 491.932V484.068C791.906 464.913 785.857 449.992 773.76 439.305C761.662 428.417 745.33 422.973 724.764 422.973C704.197 422.973 687.865 428.417 675.768 439.305C663.67 449.992 657.621 464.913 657.621 484.068V491.932C657.621 511.087 663.67 526.109 675.768 536.997C687.865 547.684 704.197 553.027 724.764 553.027Z" fill="white"></path>
<path d="M123 595.371V380.629H185.001L287.832 501.005H288.135V380.629H344.389V595.371H298.115L179.557 456.847H179.255V595.371H123Z" fill="white"></path>
<path d="M380.179 383.654H579.288V429.022H380.179V383.654Z" fill="white"></path>
<path d="M380.179 464.308H579.288V509.676H380.179V464.308Z" fill="white"></path>
<path d="M380.179 547.482H579.288V592.85H380.179V547.482Z" fill="white"></path>
</svg></svg></g></g></svg></g><g id="dark-icon"><svg xmlns="http://www.w3.org/2000/svg" version="1.1" xmlns:xlink="http://www.w3.org/1999/xlink" xmlns:svgjs="http://svgjs.dev/svgjs" width="1000" height="1000"><g><g transform="matrix(3.4482758620689653,0,0,3.4482758620689653,5.684341886080802e-14,346.55172413793105)"><svg xmlns="http://www.w3.org/2000/svg" version="1.1" xmlns:xlink="http://www.w3.org/1999/xlink" xmlns:svgjs="http://svgjs.dev/svgjs" width="290" height="89"><svg width="290" height="89" viewBox="0 0 290 89" fill="none" xmlns="http://www.w3.org/2000/svg">
<path d="M238.76 88.08C227.96 88.08 218.76 86.2 211.16 82.44C203.64 78.6 197.88 73.36 193.88 66.72C189.88 60.08 187.88 52.56 187.88 44.16C187.88 35.68 189.84 28.12 193.76 21.48C197.76 14.84 203.56 9.6 211.16 5.76C218.76 1.92 227.96 0 238.76 0C249.64 0 258.84 1.92 266.36 5.76C273.96 9.52 279.72 14.72 283.64 21.36C287.64 28 289.64 35.6 289.64 44.16C289.64 52.56 287.64 60.08 283.64 66.72C279.72 73.36 273.96 78.6 266.36 82.44C258.84 86.2 249.64 88.08 238.76 88.08ZM238.76 69.84C246.92 69.84 253.4 67.72 258.2 63.48C263 59.16 265.4 53.2 265.4 45.6V42.48C265.4 34.88 263 28.96 258.2 24.72C253.4 20.4 246.92 18.24 238.76 18.24C230.6 18.24 224.12 20.4 219.32 24.72C214.52 28.96 212.12 34.88 212.12 42.48V45.6C212.12 53.2 214.52 59.16 219.32 63.48C224.12 67.72 230.6 69.84 238.76 69.84Z" fill="white"></path>
<path d="M7.62939e-06 86.64V1.44H24.6L65.4 49.2H65.52V1.44H87.84V86.64H69.48L22.44 31.68H22.32V86.64H7.62939e-06Z" fill="white"></path>
<path d="M102.04 2.64001H181.04V20.64H102.04V2.64001Z" fill="white"></path>
<path d="M102.04 34.64H181.04V52.64H102.04V34.64Z" fill="white"></path>
<path d="M102.04 67.64H181.04V85.64H102.04V67.64Z" fill="white"></path>
</svg></svg></g></g></svg></g></svg>